<svg width="40" height="69" xmlns="http://www.w3.org/2000/svg"><g fill="#E0DFF8" fill-rule="evenodd"><path d="M30.13 36.364c0 5.714-4.416 10.39-10.13 10.39S9.87 42.077 9.87 36.363V10.13C9.87 4.675 14.286 0 20 0s10.13 4.675 10.13 10.13v26.234z"/><path d="M4.675 32.208v4.156c0 8.571 6.754 15.324 15.325 15.324 8.312 0 15.325-6.753 15.325-15.324v-4.156H40v4.156c0 10.13-7.532 18.7-17.403 19.74v7.013h8.572c3.117 0 3.117 5.195 0 5.195H8.83c-3.376 0-3.376-5.195 0-5.195h8.572v-7.013C7.533 55.064 0 46.494 0 36.364v-4.156h4.675z"/></g></svg>